<svg width="168" height="139" viewBox="0 0 168 139" fill="none" xmlns="http://www.w3.org/2000/svg">
<path d="M2.04902 115.881C14.0808 126.493 27.1547 141.128 44.6824 134.301C53.0112 131.057 55.8957 118.823 52.6897 111.719C50.0302 105.826 49.2352 98.0396 40.5002 95.3177C33.6391 93.1798 26.4804 94.5716 23.583 99.6902C15.3549 114.226 42.6087 119.993 53.7569 116.446C68.9736 111.605 75.3115 75.4113 57.2693 66.6619C41.8 59.1603 39.0071 74.2218 50.5254 81.3927C66.7284 91.48 77.8023 90.3871 87.016 76.0469C94.2101 64.85 84.6062 48.0713 72.5514 40.1816C70.0477 38.543 58.415 26.285 57.2674 27.8236C45.9439 43.0049 81.6116 58.368 96.4863 53.515C113.577 47.939 130.763 42.1291 138.374 28.4651C142.467 21.1173 145.877 -3.66794 146.613 4.86126C147.533 15.535 149.984 30.0237 158.88 39.5873C161.527 42.4331 169.734 51.6561 162.346 42.6265C154.737 33.3272 147.789 25.25 142.566 15.704C141.403 13.5797 143.648 10.0449 144.123 8.04784C144.525 6.35635 137.653 9.38032 136.772 9.58084C129.169 11.3121 121.059 9.74894 113.17 7.51231C106.13 5.51601 97.3142 1.18172 93.4749 3.65616" stroke="#00ADB5" stroke-opacity="0.2" stroke-width="4" stroke-linecap="round" stroke-linejoin="round"/>
</svg>
