<svg width="147" height="151" viewBox="0 0 147 151" fill="none" xmlns="http://www.w3.org/2000/svg">
<path d="M144.983 129.949C135.542 140.244 125.486 154.672 110.276 146.398C103.049 142.467 99.8202 129.504 102.057 122.295C103.912 116.315 104.073 108.237 111.252 105.966C116.892 104.182 123.012 106.103 125.787 111.636C133.667 127.352 111.088 131.593 101.466 127.161C88.3333 121.112 80.6306 82.906 95.2559 74.9488C107.796 68.1263 111.132 84.0356 101.898 90.7708C88.9098 100.245 79.5109 98.3807 70.8135 82.8051C64.0225 70.6437 71.0157 53.7512 80.6541 46.3004C82.6559 44.753 91.6533 32.7134 92.7204 34.3949C103.25 50.9866 74.2107 64.6983 61.3648 58.6593C46.6052 51.7205 31.7503 44.5314 24.4466 29.7666C20.5189 21.8268 16.0279 -4.27598 15.9655 4.58192C15.8874 15.6671 14.7696 30.6357 7.90133 40.0406C5.8576 42.8392 -0.452753 51.9335 5.18021 42.9876C10.9815 33.7745 16.3061 25.7945 20.0826 16.168C20.923 14.0258 18.801 10.1882 18.2707 8.0719C17.8215 6.27943 23.8074 9.88589 24.5622 10.1528C31.0792 12.4572 37.8088 11.3548 44.3069 9.53466C50.1068 7.91009 57.2489 3.96021 60.6444 6.79476" stroke="#00ADB5" stroke-opacity="0.2" stroke-width="4" stroke-linecap="round" stroke-linejoin="round"/>
</svg>
