<svg width="78" height="100" viewBox="0 0 78 100" fill="none" xmlns="http://www.w3.org/2000/svg">
<path d="M17.7175 66.8361C23.5806 60.7015 23.8896 58.5877 24.8984 51.1184C25.454 47.0053 26.2927 43.0649 26.3217 38.8814C26.3734 31.4003 28.284 21.8133 35.4157 17.6654C49.4488 9.50364 65.9401 30.753 55.9582 43.1769C52.1591 47.9054 46.9945 50.7841 42.6843 55.052C40.9558 56.7636 39.7067 58.7842 37.6559 60.2683C35.6892 61.6916 33.2454 63.4641 32.6487 65.7196C32.1447 67.6249 32.0593 70.2455 30.2663 71.5733C27.7894 73.4077 28.7676 72.3861 26.0118 71.6571C24.1174 71.156 21.7221 68.9113 20.5176 67.2849C19.6577 66.1238 18.4051 68.4929 19.0481 66.0622C19.6 63.9758 19.8125 65.8892 18.4394 65.5259" stroke="#00ADB5" stroke-opacity="0.5" stroke-width="1.66333" stroke-linecap="round" stroke-linejoin="round"/>
<path d="M24.7233 75.8196C21.2683 73.7091 11.5467 68.4653 13.1323 72.1905C15.0455 76.685 16.7796 75.1449 20.128 76.8765C21.8403 77.7621 22.1287 83.8463 20.0827 83.4319C17.1604 82.84 16.2765 78.4638 13.3458 77.6885C10.6785 76.9829 9.94095 80.5438 11.2113 82.211C12.8889 84.4125 15.7848 83.2891 16.5295 86.2239C17.7062 90.8616 11.7442 88.5805 10.2539 87.1699C8.75254 85.7487 7.47858 83.8128 6.41477 82.61" stroke="#00ADB5" stroke-opacity="0.5" stroke-width="1.66333" stroke-linecap="round" stroke-linejoin="round"/>
<path d="M18.0193 65.6963C17.9862 66.0143 17.4904 68.0895 18.3137 68.3073C18.757 68.4246 19.032 68.2097 19.3775 68.5418C19.7838 68.9324 20.0658 69.6735 20.4249 70.1584C20.7414 70.5858 21.9435 70.8613 22.0664 71.3223C22.2672 72.0756 22.9315 72.6345 23.6191 72.9006C24.5106 73.2456 24.7283 73.7966 25.7635 73.8379C26.0799 73.8506 26.1608 73.6668 26.4407 73.7408C26.8729 73.8552 27.0048 74.1112 27.427 73.8349C27.8943 73.5292 28.5341 73.4974 28.8693 72.9343C29.325 72.1687 30.3077 71.9624 28.8875 72.1364" stroke="#00ADB5" stroke-opacity="0.5" stroke-width="1.66333" stroke-linecap="round" stroke-linejoin="round"/>
<path d="M44.1274 35.4501C42.5563 35.0435 41.2329 34.8016 40.2581 36.3238C39.5949 37.3594 39.2942 38.4701 38.9833 39.6455C38.681 40.7882 39.1394 41.8925 38.8549 42.9682C38.4788 44.3901 37.4032 43.8564 36.3262 44.0349C35.3089 44.2035 34.5598 44.3711 33.825 45.1558C33.0972 45.933 33.0024 47.7829 32.8075 48.7854C32.6398 49.6481 32.5663 51.5564 31.7904 52.118C31.3688 52.4231 29.4687 52.5638 30.8336 52.0108" stroke="#00ADB5" stroke-opacity="0.5" stroke-width="1.66333" stroke-linecap="round" stroke-linejoin="round"/>
<path d="M53.1694 54.8232C54.2049 55.9902 55.3002 57.0281 56.5652 57.9263C57.0957 58.3029 57.7667 58.902 57.8789 57.9454" stroke="#00ADB5" stroke-opacity="0.5" stroke-width="1.66333" stroke-linecap="round" stroke-linejoin="round"/>
<path d="M60.9297 43.9292C63.0142 45.0541 65.0656 46.2431 67.1154 47.4211C67.4563 47.617 66.8594 46.4661 66.8356 46.4297" stroke="#00ADB5" stroke-opacity="0.5" stroke-width="1.66333" stroke-linecap="round" stroke-linejoin="round"/>
<path d="M64.582 32.6049C66.9762 32.8797 69.3848 33.0719 71.7865 33.2702C72.8922 33.3615 73.3026 33.6182 72.9425 32.5649" stroke="#00ADB5" stroke-opacity="0.5" stroke-width="1.66333" stroke-linecap="round" stroke-linejoin="round"/>
<path d="M55.3552 17.1233C57.2613 17.2851 58.9219 17.3943 60.7858 17.0067C61.6583 16.8252 62.5227 16.5584 63.4113 16.4607C64.4672 16.3446 64.457 16.4623 63.5607 15.5412" stroke="#00ADB5" stroke-opacity="0.5" stroke-width="1.66333" stroke-linecap="round" stroke-linejoin="round"/>
<path d="M41.572 5.03341C40.8139 6.82407 40.6069 7.96193 40.9136 9.84732C41.079 10.8637 41.1183 12.1035 41.0594 13.1383C41.0391 13.4947 41.0268 13.6973 41.1881 14.0115C41.2484 14.1291 41.2334 12.9168 41.2251 12.7287" stroke="#00ADB5" stroke-opacity="0.5" stroke-width="1.66333" stroke-linecap="round" stroke-linejoin="round"/>
<path d="M26.1848 8.9375C26.2542 11.0295 26.5921 13.108 26.5764 15.181C26.5684 16.2298 26.3952 16.2479 26.2322 15.1421" stroke="#00ADB5" stroke-opacity="0.5" stroke-width="1.66333" stroke-linecap="round" stroke-linejoin="round"/>
<path d="M16.885 21.3948C18.4211 23.646 19.4887 26.2185 20.4759 28.7453C20.5996 29.0619 20.7989 29.2155 20.9571 29.4876C21.3166 30.1057 20.7649 28.7784 20.7028 28.5968" stroke="#00ADB5" stroke-opacity="0.5" stroke-width="1.66333" stroke-linecap="round" stroke-linejoin="round"/>
</svg>
