<svg width="342" height="386" viewBox="0 0 342 386" fill="none" xmlns="http://www.w3.org/2000/svg">
<rect x="159.698" y="282.174" width="59.9544" height="102.826" rx="3.51536" fill="#00ADB5" stroke="black" stroke-width="1.64486" stroke-linejoin="round"/>
<rect x="2.85693" y="311.866" width="59.9544" height="73.1338" rx="3.51536" fill="#EEEEEE" stroke="black" stroke-width="1.64486" stroke-linejoin="round"/>
<rect x="281.045" y="168.189" width="59.9544" height="216.811" rx="3.51536" fill="#00ADB5" stroke="black" stroke-width="1.64486" stroke-linejoin="round"/>
<path d="M82.4402 141.796L144.083 141.796C144.083 141.796 134.259 216.399 120.888 228.63C107.517 240.861 37.5401 274.405 37.5401 274.405L13.9736 262.386L57.9064 204.894C57.9064 204.894 53.075 182.475 82.4402 141.796Z" fill="#00ADB5" stroke="black" stroke-width="1.39887"/>
<path d="M38.5365 273.732L13.9735 262.389L1.54208 273.511C1.54208 273.511 22.4988 283.605 37.1197 287.561L30.9273 280.774L38.5365 273.732Z" fill="#EEEEEE" stroke="black" stroke-width="1.39887" stroke-linejoin="round"/>
<path d="M82.7031 140.709L150.056 140.635C150.056 140.635 187.497 167.994 192.214 184.046C196.931 200.098 191.552 258.353 191.552 258.353L164.33 268.354L136.227 206.823C136.227 206.823 106.844 183.695 82.7031 140.709Z" fill="#00ADB5"/>
<path d="M82.7031 140.709L82.6469 140.063C82.3979 140.063 82.1746 140.17 82.0515 140.349C81.9284 140.529 81.9216 140.755 82.0334 140.955L82.7031 140.709ZM150.056 140.635L150.515 140.155L150.287 139.989L149.999 139.989L150.056 140.635ZM191.552 258.353L191.887 258.951L192.265 258.812L192.298 258.451L191.552 258.353ZM164.33 268.354L163.636 268.552L163.94 269.218L164.665 268.951L164.33 268.354ZM136.227 206.823L136.921 206.626L136.851 206.473L136.709 206.361L136.227 206.823ZM82.7593 141.355L150.112 141.281L149.999 139.989L82.6469 140.063L82.7593 141.355ZM191.216 257.756L163.994 267.757L164.665 268.951L191.887 258.951L191.216 257.756ZM165.024 268.157L136.921 206.626L135.532 207.021L163.636 268.552L165.024 268.157ZM136.227 206.823C136.709 206.361 136.709 206.361 136.709 206.361C136.709 206.361 136.708 206.36 136.708 206.36C136.707 206.36 136.706 206.359 136.705 206.357C136.701 206.355 136.696 206.351 136.69 206.346C136.676 206.335 136.656 206.319 136.629 206.297C136.574 206.253 136.492 206.187 136.383 206.099C136.165 205.921 135.841 205.655 135.42 205.3C134.576 204.589 133.341 203.524 131.783 202.111C128.666 199.284 124.254 195.065 119.088 189.505C108.757 178.384 95.4118 161.9 83.3728 140.463L82.0334 140.955C94.1351 162.503 107.552 179.077 117.947 190.266C123.144 195.861 127.587 200.111 130.734 202.964C132.307 204.391 133.557 205.469 134.414 206.191C134.843 206.552 135.174 206.825 135.399 207.007C135.511 207.099 135.596 207.167 135.654 207.214C135.683 207.237 135.706 207.255 135.721 207.267C135.728 207.273 135.734 207.277 135.738 207.28C135.74 207.282 135.741 207.283 135.743 207.284C135.743 207.284 135.744 207.285 135.744 207.285C135.744 207.285 135.745 207.286 136.227 206.823ZM150.056 140.635C149.597 141.115 149.597 141.115 149.597 141.115C149.597 141.115 149.597 141.116 149.598 141.116C149.599 141.117 149.601 141.118 149.603 141.119C149.607 141.123 149.614 141.127 149.623 141.134C149.64 141.147 149.667 141.166 149.702 141.192C149.772 141.244 149.877 141.321 150.013 141.423C150.287 141.626 150.69 141.926 151.205 142.314C152.234 143.091 153.711 144.219 155.498 145.623C159.073 148.432 163.888 152.343 168.847 156.753C173.809 161.164 178.904 166.064 183.048 170.852C187.205 175.655 190.349 180.284 191.489 184.161L192.939 183.931C191.72 179.782 188.415 174.971 184.225 170.13C180.022 165.273 174.873 160.324 169.884 155.889C164.894 151.452 160.053 147.52 156.461 144.698C154.664 143.286 153.179 142.152 152.143 141.369C151.624 140.978 151.218 140.675 150.941 140.47C150.802 140.367 150.696 140.289 150.624 140.236C150.588 140.209 150.561 140.189 150.543 140.176C150.534 140.169 150.527 140.164 150.522 140.16C150.52 140.159 150.518 140.157 150.516 140.156C150.516 140.156 150.515 140.156 150.515 140.155C150.515 140.155 150.515 140.155 150.056 140.635ZM191.489 184.161C192.643 188.09 193.192 194.67 193.352 202.392C193.51 210.094 193.281 218.867 192.903 227.146C192.526 235.424 192.001 243.202 191.571 248.911C191.356 251.765 191.164 254.102 191.027 255.724C190.958 256.536 190.902 257.169 190.864 257.599C190.845 257.814 190.83 257.978 190.82 258.088C190.815 258.143 190.811 258.185 190.809 258.213C190.808 258.227 190.807 258.238 190.806 258.245C190.806 258.248 190.805 258.251 190.805 258.252C190.805 258.253 190.805 258.254 190.805 258.254C190.805 258.255 190.805 258.255 191.552 258.353C192.298 258.451 192.298 258.451 192.298 258.451C192.298 258.45 192.298 258.45 192.299 258.449C192.299 258.447 192.299 258.444 192.299 258.441C192.3 258.433 192.301 258.423 192.302 258.409C192.305 258.381 192.309 258.338 192.314 258.283C192.324 258.172 192.339 258.007 192.358 257.791C192.396 257.36 192.452 256.726 192.521 255.913C192.659 254.287 192.85 251.947 193.066 249.089C193.497 243.373 194.022 235.584 194.4 227.292C194.778 219.001 195.009 210.201 194.849 202.465C194.69 194.749 194.143 188.028 192.939 183.931L191.489 184.161Z" fill="black"/>
<path fill-rule="evenodd" clip-rule="evenodd" d="M141.777 49.4354C143.309 48.971 144.768 48.2923 146.099 47.3498C156.149 40.2357 151.839 29.5024 145.758 23.9144C139.676 18.3264 102.471 20.5554 120.022 46.4422C120.096 46.4792 120.171 46.5164 120.248 46.5539C122.21 51.742 120.555 56.192 118.57 61.5313C117.76 63.7091 116.895 66.0347 116.198 68.6188L134.812 67.5105C139.929 61.7377 141.868 55.9187 141.777 49.4354Z" fill="#F5B9AB"/>
<path d="M146.099 47.3498L145.533 46.7156L146.099 47.3498ZM141.777 49.4354L141.439 48.6904C141.119 48.7876 140.912 49.0573 140.917 49.3735L141.777 49.4354ZM145.758 23.9144L146.341 23.3902L146.341 23.3902L145.758 23.9144ZM120.022 46.4422L119.301 46.8071C119.39 46.9378 119.515 47.0463 119.662 47.1201L120.022 46.4422ZM120.248 46.5539L121.059 46.3618C120.981 46.1538 120.814 45.9767 120.599 45.8716L120.248 46.5539ZM118.57 61.5313L117.752 61.2209L118.57 61.5313ZM116.198 68.6188L115.362 68.3677C115.295 68.6151 115.372 68.888 115.567 69.0952C115.762 69.3025 116.049 69.4167 116.333 69.3998L116.198 68.6188ZM134.812 67.5105L134.947 68.2916C135.168 68.2784 135.367 68.1862 135.502 68.0347L134.812 67.5105ZM145.533 46.7156C144.275 47.6064 142.894 48.2493 141.439 48.6904L142.115 50.1805C143.724 49.6928 145.261 48.9782 146.665 47.9841L145.533 46.7156ZM145.175 24.4387C148.093 27.12 150.572 31.0295 151.124 35.0849C151.67 39.0958 150.343 43.3107 145.533 46.7156L146.665 47.9841C151.905 44.2748 153.448 39.566 152.831 35.0347C152.221 30.548 149.504 26.2968 146.341 23.3902L145.175 24.4387ZM120.743 46.0772C116.433 39.7204 115.584 34.9649 116.616 31.4825C117.649 27.9958 120.625 25.5945 124.429 24.0984C128.232 22.6024 132.776 22.0505 136.742 22.2185C138.722 22.3024 140.532 22.5648 142.012 22.9651C143.515 23.3714 144.582 23.8943 145.175 24.4387L146.341 23.3902C145.413 22.5376 143.987 21.9077 142.36 21.4675C140.71 21.0212 138.752 20.7433 136.664 20.6548C132.491 20.478 127.691 21.0535 123.627 22.6521C119.563 24.2506 116.148 26.911 114.952 30.9483C113.754 34.9898 114.836 40.2205 119.301 46.8071L120.743 46.0772ZM120.599 45.8716C120.525 45.8355 120.453 45.7997 120.382 45.7642L119.662 47.1201C119.739 47.1586 119.818 47.1973 119.897 47.2362L120.599 45.8716ZM119.388 61.8418C121.356 56.5493 123.135 51.8497 121.059 46.3618L119.437 46.746C121.286 51.6344 119.755 55.8347 117.752 61.2209L119.388 61.8418ZM117.035 68.8699C117.723 66.3202 118.577 64.0223 119.388 61.8418L117.752 61.2209C116.943 63.3959 116.068 65.7492 115.362 68.3677L117.035 68.8699ZM134.678 66.7294L116.064 67.8377L116.333 69.3998L134.947 68.2916L134.678 66.7294ZM140.917 49.3735C141.006 55.6829 139.127 61.3399 134.123 66.9863L135.502 68.0347C140.73 62.1355 142.731 56.1545 142.637 49.4974L140.917 49.3735Z" fill="black"/>
<path d="M116.683 30.81C113.77 34.1773 116.907 42.494 119.222 44.5741C100.042 35.7308 112.185 15.7781 118.103 19.4166C119.067 12.0398 129.254 9.43707 136.198 15.6759C153.608 3.99293 154.524 23.9003 148.379 26.9278C142.234 29.9552 134.778 27.0721 130.909 28.6333C127.04 30.1945 124.652 39.651 123.399 34.4025C122.145 29.1539 120.324 26.6008 116.683 30.81Z" fill="#00ADB5" stroke="black" stroke-width="1.64486"/>
<path d="M152.304 141.902C172 131.017 164.308 93.9079 161.313 82.2146C160.701 79.8264 159.779 77.541 158.676 75.3236C151.202 60.312 135.554 49.0949 119.695 53.726C76.0339 66.4749 82.1775 117.641 82.553 142.263L152.304 141.902Z" fill="#EEEEEE" stroke="black" stroke-width="1.64486" stroke-linejoin="round"/>
<path d="M212.69 90.0239L196.576 73.6844L142.284 105.248L124.736 75.8981L102.014 105.248C102.014 105.248 126.629 137.016 139.134 136.093C161.921 134.411 212.69 90.0239 212.69 90.0239Z" fill="#EEEEEE"/>
<path d="M125.938 78.0398L142.131 104.347L196.576 73.685L212.69 90.0245C212.69 90.0245 164.831 134.137 136.864 136.201C128.061 136.851 102.417 104.93 102.417 104.93" stroke="black" stroke-width="1.64486"/>
<path d="M201.887 70.7613L195.552 74.1397L211.572 91.0059L215.588 88.3025C221.442 84.362 222.618 77.265 218.181 72.6543C214.309 68.6319 207.387 67.8276 201.887 70.7613Z" fill="#F5B9AB" stroke="black" stroke-width="1.64486" stroke-linejoin="round"/>
<path d="M191.882 256.231L164.331 268.166L169.07 283.082L205.858 264.257L195.033 265.479L191.882 256.231Z" fill="#EEEEEE" stroke="black" stroke-width="1.39887" stroke-linejoin="round"/>
</svg>
