<?xml version="1.0" encoding="utf-8"?>
<!-- Generator: Adobe Illustrator 27.5.0, SVG Export Plug-In . SVG Version: 6.00 Build 0)  -->
<svg version="1.1" xmlns="http://www.w3.org/2000/svg" xmlns:xlink="http://www.w3.org/1999/xlink" x="0px" y="0px"
	 viewBox="0 0 500 500" style="enable-background:new 0 0 500 500;" xml:space="preserve">
<g id="BACKGROUND">
	<rect style="fill:#3052B3;" width="500" height="500"/>
</g>
<g id="OBJECTS">
	<g>
		<defs>
			<rect id="SVGID_1_" width="500" height="500"/>
		</defs>
		<clipPath id="SVGID_00000070088256153993042020000002013284027031332287_">
			<use xlink:href="#SVGID_1_"  style="overflow:visible;"/>
		</clipPath>
		<g style="clip-path:url(#SVGID_00000070088256153993042020000002013284027031332287_);">
			<g>
				<path style="fill:#5978D4;" d="M220.043,47.155c0,0-4.339-10.821-3.766-20.564C220.859,33.908,220.043,47.155,220.043,47.155z"
					/>
				<path style="fill:#5978D4;" d="M202.204,53.909c0,0-8.32-8.167-11.708-17.32C197.63,41.449,202.204,53.909,202.204,53.909z"/>
				<path style="fill:#5978D4;" d="M190.944,65.159c0,0-10.789-4.418-17.384-11.613C182.002,55.351,190.944,65.159,190.944,65.159z"
					/>
				<path style="fill:#5978D4;" d="M184.974,78.9c0,0-11.655-0.283-20.381-4.656C173.124,72.922,184.974,78.9,184.974,78.9z"/>
				<path style="fill:#5978D4;" d="M239.499,47.078c0,0,4.886-10.585,4.81-20.345C239.36,33.806,239.499,47.078,239.499,47.078z"/>
				<path style="fill:#5978D4;" d="M254.015,53.609c0,0,8.523-7.955,12.14-17.02C258.9,41.268,254.015,53.609,254.015,53.609z"/>
				<path style="fill:#5978D4;" d="M264.467,64.341c0,0,10.798-4.396,17.408-11.576C273.43,54.552,264.467,64.341,264.467,64.341z"
					/>
			</g>
			<g>
				<g>
					<path style="fill:#FF9D85;" d="M-42.538,243.916l117.917,6.623c0,0,14.007-11.454,18.798-16.262
						c4.792-4.808,9.436-15.556,9.641-21.205c0,0,4.945-0.152,5.627,4.619c0.682,4.771-3.104,20.467-3.104,20.467
						s6.056,0.03,14.77,0.074c8.714,0.044,7.974,6.94,4.59,12.56c2.794,6.194,2.243,10.429-4.834,13.395
						c3.681,5.316,0.661,9.008-4.641,10.041c1.395,3.539,0.844,7.773-8.159,7.375c-9.003-0.398-31.928-6.34-31.928-6.34
						s-3.011,1.927-6.183,0.675l-113.446,17.266L-42.538,243.916z"/>
					
						<line style="fill:none;stroke:#FF8263;stroke-width:0.9742;stroke-linecap:round;stroke-linejoin:round;stroke-miterlimit:10;" x1="76.174" y1="268.023" x2="75.45" y2="271.639"/>
					<path style="fill:#FF8263;" d="M115.767,246.152c0,0,5.218-1.828,5.209,0.026C120.966,248.032,115.767,246.152,115.767,246.152
						z"/>
					<path style="fill:#FF8263;" d="M114.679,256.457c0,0,5.83-0.677,5.425,0.998C119.698,259.131,114.679,256.457,114.679,256.457z
						"/>
					<path style="fill:#FF8263;" d="M112.569,268.071c0,0,4.595-0.772,4.056,1.08C116.086,271.002,112.569,268.071,112.569,268.071z
						"/>
					<path style="fill:#FF8263;" d="M107.38,275.284c0,0,4.595-0.772,4.056,1.08C110.897,278.215,107.38,275.284,107.38,275.284z"/>
					<path style="fill:#D43737;" d="M103.567,215.257c0,0,2.831-0.289,2.524,2.24c-0.307,2.529-0.603,2.881-0.603,2.881
						l-3.075-0.726L103.567,215.257z"/>
				</g>
				<path style="fill:#FF8263;" d="M26.798,247.81c-1.967,8.55-11.433,15.139-13.909,29.671c-0.748,4.39-4.26,7.79-8.662,8.46
					l-47.718,7.262l0.953-49.288L26.798,247.81z"/>
				<g>
					<circle style="fill:#FFD6D6;" cx="72.706" cy="250.908" r="2.526"/>
					<path style="fill:#FFD6D6;" d="M75.545,255.961c0,1.395-1.131,2.526-2.526,2.526c-1.395,0-2.526-1.131-2.526-2.526
						c0-1.395,1.131-2.526,2.526-2.526C74.414,253.435,75.545,254.566,75.545,255.961z"/>
					<path style="fill:#FFD6D6;" d="M75.545,261.014c0,1.395-1.131,2.526-2.526,2.526c-1.395,0-2.526-1.131-2.526-2.526
						c0-1.395,1.131-2.526,2.526-2.526C74.414,258.487,75.545,259.618,75.545,261.014z"/>
					<path style="fill:#FFD6D6;" d="M74.775,266.001c0,1.395-1.131,2.526-2.526,2.526c-1.395,0-2.526-1.131-2.526-2.526
						c0-1.395,1.131-2.526,2.526-2.526C73.644,263.475,74.775,264.606,74.775,266.001z"/>
					<path style="fill:#FFD6D6;" d="M73.804,270.975c0,1.395-1.131,2.526-2.526,2.526c-1.395,0-2.526-1.131-2.526-2.526
						c0-1.395,1.131-2.526,2.526-2.526C72.673,268.448,73.804,269.579,73.804,270.975z"/>
					<path style="fill:#FFD6D6;" d="M72.683,275.856c0,1.395-1.131,2.526-2.526,2.526c-1.395,0-2.526-1.131-2.526-2.526
						s1.131-2.526,2.526-2.526C71.552,273.33,72.683,274.461,72.683,275.856z"/>
				</g>
			</g>
			<g>
				<path style="fill:#00402D;" d="M42.695,390.919c2.857,2.683,13.594,39.047,14.062,42.234c0.469,3.188-1.288,5.159-8.32,2.299
					c-7.031-2.859-12.399-13.081-15.024-25.737S38.851,387.31,42.695,390.919z"/>
				<path style="fill:#FF9191;" d="M-27.031,419.047l88.875-31.876l10.125-19.124c0,0,3.75-12.813-0.563-21.781
					c0,0,7.312-2.594,9,5.094s1.688,15.188,1.688,15.188s11.25-3.688,16.688-5.969c5.438-2.281,8.438,3.906,4.875,9.719
					c0,0,11.25-1.875,4.5,10.125c0,0,6.375,4.125,0.375,12c0,0,5.625,3.375-1.688,9.375s-34.312,11.063-34.312,11.063
					s-0.938,2.625-4.313,3.563s-87.75,61.5-87.75,61.5L-27.031,419.047z"/>
				<path style="fill:#FF6363;" d="M92.688,370.016c0,0,3.938-3.469,4.406-2.25C97.563,368.984,92.688,370.016,92.688,370.016z"/>
				<path style="fill:#FF6363;" d="M96.344,379.672c0,0,5.063-4.875,5.906-2.906C103.094,378.734,96.344,379.672,96.344,379.672z"/>
				<path style="fill:#FF6363;" d="M97.938,389.047c0,0,4.969-2.813,5.25-1.5C103.469,388.859,97.938,389.047,97.938,389.047z"/>
				<path style="fill:#FF6363;" d="M100.568,397.939c0,0,3.839-1.674,3.932-0.643C104.594,398.328,100.568,397.939,100.568,397.939z
					"/>
				<path style="fill:#FFD6D6;" d="M73.104,351.895l2.357-0.325c0,0-0.141-2.391-1.336-4.078c-0.668-0.943-1.666-0.832-2.416-0.55
					C72.385,348.52,72.83,350.199,73.104,351.895z"/>
				<path style="fill:#FF6363;" d="M3.552,408.078l25.75,35.037c9.023-6.383,17.76-12.523,24.675-17.307
					c-4.011-8.998-3.14-25.886-2.284-34.997L3.552,408.078z"/>
				<path style="fill:#00946A;" d="M42.695,390.919c-3.188-1.828-4.5,1.734-2.813,15.047s15.562,33.187,16.875,27.187
					c0,0,1.688,3-3.188,4.5s-8.062-0.75-13.5,5.063s-4.5,14.625-18.562,17.438c-14.063,2.813-21.875,7.688-26.969,14.063
					c-5.094,6.375-19.906,12-19.906,12l-12-68.812C-37.368,417.404,39.32,385.247,42.695,390.919z"/>
				<g>
					<path style="fill:#00402D;" d="M39.301,434.498c-2.359-1.298-4.593-2.688-6.794-4.179c-2.193-1.491-4.324-3.083-6.331-4.834
						c-2-1.752-3.899-3.667-5.41-5.913c-0.743-1.127-1.372-2.361-1.712-3.703c-0.344-1.333-0.331-2.806,0.187-4.103L19.884,412
						c-0.399,1.177-0.345,2.452,0.021,3.635c0.365,1.188,0.997,2.298,1.748,3.32c1.526,2.039,3.442,3.795,5.466,5.393
						c2.03,1.598,4.186,3.046,6.402,4.394c2.211,1.342,4.506,2.611,6.802,3.728L39.301,434.498z"/>
				</g>
				<g>
					<path style="fill:#00402D;" d="M28.755,430.398c-1.932-0.117-3.85-0.336-5.763-0.615c-1.913-0.277-3.815-0.648-5.696-1.118
						c-1.882-0.463-3.746-1.044-5.537-1.842c-1.779-0.8-3.547-1.769-4.946-3.274l0.75-0.662c1.199,1.376,2.847,2.367,4.541,3.187
						c1.705,0.823,3.517,1.451,5.359,1.964c1.841,0.52,3.715,0.945,5.605,1.278c1.889,0.335,3.796,0.611,5.706,0.785L28.755,430.398
						z"/>
				</g>
			</g>
			<g>
				<path style="fill:#FF9D85;" d="M547.823,450.729c0,0-98.992-39.22-107.909-48.422c-8.917-9.201-13.389-37.962-11.727-43.874
					c1.046-3.722,1.393-7.088,1.393-7.088s-4.837-1.28-7.375,4.374c-2.465,5.493-6.062,17.431-6.062,17.431s-11.56-4.955-17.25-7.06
					c-5.689-2.106-9.303,4.192-8.766,8.429c-4.51,0.832-8.538,6.821-5.124,12.483c-3.656,4.065-4.536,7.31-1.416,11.359
					c-3.498,6.17,3.931,12.437,11.554,16.712c7.623,4.275,25.562,9.708,25.562,9.708s4.495,4.846,8.517,5.546l75.061,57.685
					L547.823,450.729z"/>
				<path style="fill:#FF8263;" d="M431.602,432.157l30.991,23.817l14.171-34.837c-17.599-7.779-32.577-14.974-36.486-18.488
					C438.087,408.706,433.009,423.305,431.602,432.157z"/>
				<path style="fill:#FF8263;" d="M400.907,374.26c0,0-3.709-2.956-4.324-1.709C395.967,373.798,400.907,374.26,400.907,374.26z"/>
				<path style="fill:#FF8263;" d="M395.277,384.22c0,0-3.709-2.956-4.324-1.709C390.337,383.759,395.277,384.22,395.277,384.22z"/>
				<path style="fill:#FF8263;" d="M392.038,404.216c0,0-3.709-2.956-4.324-1.709C387.098,403.755,392.038,404.216,392.038,404.216z
					"/>
				<path style="fill:#FF8263;" d="M391.7,395.649c0,0-3.709-2.956-4.324-1.709C386.76,395.188,391.7,395.649,391.7,395.649z"/>
				<path style="fill:#FFD6D6;" d="M429.238,353.716c0,0-3.621-1.347-4.94,4.399l3.773,0.82L429.238,353.716z"/>
				<path style="fill:#FFD6D6;" d="M462.39,412.109l-14.391-7.125c0,0-12.245,13.589-14.354,31.405l14.26,10.877L462.39,412.109z"/>
				<path style="fill:#2C2B3B;" d="M553.309,448.526l-93.404-38.855c0,0-8.719,10.558-14.344,38.308L500,494.234L553.309,448.526z"
					/>
				<g>
					<polygon style="fill:#545270;" points="450.498,430.508 479.151,453.763 478.535,454.549 449.159,432.212 					"/>
				</g>
				<path style="fill:#FFD6D6;" d="M462.39,432.008c0,0.893-0.724,1.617-1.617,1.617c-0.893,0-1.617-0.724-1.617-1.617
					c0-0.893,0.724-1.617,1.617-1.617C461.666,430.39,462.39,431.115,462.39,432.008z"/>
				<path style="fill:#FFD6D6;" d="M471.754,439.645c0,0.893-0.724,1.617-1.617,1.617c-0.893,0-1.617-0.724-1.617-1.617
					c0-0.893,0.724-1.617,1.617-1.617C471.03,438.028,471.754,438.752,471.754,439.645z"/>
			</g>
			<g>
				<g>
					<polygon style="fill:#FF9191;" points="151.469,334.538 140.5,410.194 161.312,410.194 189.906,338.195 					"/>
					<path style="fill:#FF6363;" d="M151.469,334.538l-2.871,19.8c6.241,3.337,15.024,8.998,17.911,15.638
						c1.731,3.982,4.379,7.104,7.02,9.455l16.376-41.236L151.469,334.538z"/>
					<g>
						<path style="fill:#FFD6D6;" d="M155.125,200.382c-6.656,13.219-7.594,30.844-7.594,41.531s0,37.312,0,37.312
							s-8.25,16.313,0,12.563c-2.625,5.438-8.063,19.5-0.75,17.625c-1.313,3.563-2.25,6.188-2.25,6.188h38.625l6.75-46.687
							l-13.875-63.75L155.125,200.382z"/>
						<path style="fill:#FFBABA;" d="M146.781,309.413c-1.313,3.563-2.25,6.188-2.25,6.188h38.625l3.031-20.964l-15.312-78.223
							c0,0-5.095,27.689-6.844,43.182c-1.714,15.178-17.669,39.218-20.735,48.179C143.685,309.212,144.732,309.939,146.781,309.413z
							"/>
						<path style="fill:#D43737;" d="M186.765,313.445c0,0-37.266,0-42.187,0c-4.922,0-1.466,5.625-1.466,5.625
							s-2.646,6.891,0.183,13.5c0,0-3.499,7.875,1.142,9c4.641,1.125,37.969,0,37.969,0L186.765,313.445z"/>
						<g>
							<polygon style="fill:#A12A2A;" points="182.867,321.042 159.57,329.89 159.117,328.78 181.945,318.785 							"/>
						</g>
						<path style="fill:none;stroke:#FFB8B8;stroke-linecap:round;stroke-linejoin:round;stroke-miterlimit:10;" d="
							M170.875,216.413c0,0-6.91-9.006-16.374-11.444"/>
						
							<line style="fill:none;stroke:#FFB8B8;stroke-linecap:round;stroke-linejoin:round;stroke-miterlimit:10;" x1="175.402" y1="248.834" x2="148.513" y2="242.157"/>
						
							<line style="fill:none;stroke:#FFB8B8;stroke-linecap:round;stroke-linejoin:round;stroke-miterlimit:10;" x1="179.987" y1="281.678" x2="148.513" y2="279.3"/>
						<g>
							<polygon style="fill:#DE9393;" points="170.814,278.526 158.618,293.355 157.819,292.754 168.686,276.926 							"/>
						</g>
						<g>
							<polygon style="fill:#DE9393;" points="170.399,273.192 153.157,284.186 152.593,283.36 169.1,271.291 							"/>
						</g>
					</g>
					<g>
						<path style="fill:#00402D;" d="M191.969,450.132h-63.369c-4.145,0-7.505-3.36-7.505-7.505v-58.588h70.875V450.132z"/>
						<path style="fill:#FCF3D4;" d="M128.118,447.676L128.118,447.676c-2.638,0-4.776-2.138-4.776-4.776v-58.862h9.552V442.9
							C132.894,445.538,130.756,447.676,128.118,447.676z"/>
						
							<line style="fill:none;stroke:#003626;stroke-width:0.5;stroke-linecap:round;stroke-linejoin:round;stroke-miterlimit:10;" x1="125.406" y1="384.038" x2="125.406" y2="442.645"/>
						
							<line style="fill:none;stroke:#003626;stroke-width:0.5;stroke-linecap:round;stroke-linejoin:round;stroke-miterlimit:10;" x1="127.187" y1="384.038" x2="127.187" y2="442.645"/>
						
							<line style="fill:none;stroke:#003626;stroke-width:0.5;stroke-linecap:round;stroke-linejoin:round;stroke-miterlimit:10;" x1="128.969" y1="384.038" x2="128.969" y2="442.645"/>
						
							<line style="fill:none;stroke:#003626;stroke-width:0.5;stroke-linecap:round;stroke-linejoin:round;stroke-miterlimit:10;" x1="130.75" y1="384.038" x2="130.75" y2="442.645"/>
					</g>
					<g>
						<path style="fill:#FF9191;" d="M140.018,449.657c-0.343,0.63-0.265,1.406,0.196,1.956c0.756,0.902,2.131,2.007,4.036,1.387
							c3.023-0.984,9.07-14.836,8.086-15.82C151.408,436.252,142.985,444.207,140.018,449.657z"/>
						<path style="fill:#FF9191;" d="M145.99,450.68c0,0,1.266,2.25,4.922,1.055c3.656-1.195,10.477-12.234,8.859-13.289
							C158.154,437.391,145.99,450.68,145.99,450.68z"/>
						<path style="fill:#FF9191;" d="M152.718,450.735c0,0,2.345,3.17,5.124,0.308c2.778-2.862,9.138-10.228,6.987-10.78
							C162.679,439.711,152.718,450.735,152.718,450.735z"/>
						<path style="fill:#FF9191;" d="M157.327,451.243c0,0,2.429,1.403,4.187,0.069c1.758-1.334,5.963-6.383,4.838-6.875
							C165.227,443.944,157.327,451.243,157.327,451.243z"/>
					</g>
				</g>
				<g>
					<path style="fill:#867DFF;" d="M179.781,356.985h117.375l0.563,6.804c0,0,9.938,36.187,9.563,59.812
						c-0.375,23.625,5.063,23.25,4.313,34.125s-2.438,18.187,2.625,25.687s4.688,20.063,4.688,20.063h-74.625
						c0,0-2.625-5.438-1.313-14.813c1.313-9.375-5.437-28.312-6.562-35.25s-2.625-14.625-2.625-14.625s-3.188,22.5-2.813,33.75
						c0.375,11.25-2.625,30.938-2.625,30.938h-61.277c0,0,0.313-9.375,2-14.25s-4.125-9.75-1.125-19.687
						c3-9.938,3.375-17.612,3.375-24.368s-0.465-18.944,1.223-26.631C174.227,410.851,172.54,395.663,179.781,356.985z"/>
					<path style="fill:#5A55AD;" d="M300.725,375.971c-1.672-7.316-3.007-12.183-3.007-12.183l-0.563-6.804H179.781
						c-0.589,3.145-1.116,6.128-1.592,8.967c-0.326,1.943,0.977,3.781,2.92,4.113c10.131,1.735,29.83,4.421,53.047,4.036
						C266.472,373.565,284.506,387.018,300.725,375.971z"/>
					<g>
						<path style="fill:#3E3B78;" d="M270.903,361.987c-0.115,2.977,0.053,6.143,0.359,9.209c0.325,3.085,0.821,6.156,1.503,9.184
							c1.366,6.052,3.46,11.964,6.504,17.37c1.512,2.704,3.228,5.303,5.224,7.678c1.987,2.374,4.143,4.633,6.579,6.566
							c0.583,0.515,1.205,0.981,1.841,1.429c0.634,0.449,1.246,0.934,1.9,1.355c1.325,0.815,2.618,1.691,4.02,2.38
							c2.727,1.525,5.661,2.637,8.612,3.682l-0.316,1.025c-3.036-0.971-6.072-2.019-8.92-3.498
							c-1.461-0.665-2.819-1.523-4.211-2.324c-0.688-0.414-1.334-0.893-2.003-1.338c-0.671-0.443-1.328-0.907-1.948-1.42
							c-5.106-3.915-9.413-8.878-12.701-14.42c-3.335-5.527-5.694-11.598-7.3-17.828c-0.803-3.118-1.413-6.284-1.847-9.477
							c-0.414-3.214-0.692-6.373-0.665-9.719L270.903,361.987z"/>
					</g>
					
						<line style="fill:none;stroke:#3E3B78;stroke-width:1.073;stroke-miterlimit:10;" x1="233.781" y1="438.788" x2="230.593" y2="361.913"/>
					<path style="fill:none;stroke:#3E3B78;stroke-width:1.073;stroke-miterlimit:10;" d="M218.594,360.788
						c0,0,0.188,29.437,2.063,43.125s12.347,16.126,12.347,16.126"/>
					<g>
						<polygon style="fill:#3E3B78;" points="211.058,426.534 247.318,423.81 247.432,425.547 211.129,427.605 						"/>
					</g>
					<g>
						<path style="fill:#3E3B78;" d="M263.834,426.39c-4.31,1.27-8.621,2.499-13.004,3.562c-4.408,1.064-8.858,1.66-13.151,2.744
							c-2.151,0.527-4.266,1.166-6.339,1.915c-2.152,0.805-4.438,1.348-6.678,1.725c-4.514,0.75-9.015,1.065-13.584,1.137
							l0.029-2.527c4.392,0.05,8.869-0.142,13.218-0.748c2.188-0.311,4.295-0.751,6.365-1.46c2.163-0.717,4.362-1.316,6.579-1.796
							c4.434-0.99,8.909-1.467,13.244-2.392c4.357-0.933,8.704-2.044,13.025-3.192L263.834,426.39z"/>
					</g>
					
						<line style="fill:none;stroke:#3E3B78;stroke-width:1.073;stroke-miterlimit:10;" x1="219.25" y1="439.911" x2="247.375" y2="437.897"/>
					<g>
						<path style="fill:#3E3B78;" d="M193.816,360.826c-0.276,4.466-0.779,8.889-1.464,13.305
							c-0.687,4.412-1.579,8.803-2.775,13.138c-1.227,4.323-2.723,8.618-5.002,12.644c-1.139,2.006-2.483,3.954-4.225,5.64
							c-1.722,1.68-3.904,3.105-6.419,3.722l-0.733-3.247c1.838-0.367,3.566-1.355,5.073-2.701c1.516-1.342,2.807-3.028,3.931-4.832
							c2.262-3.619,3.9-7.705,5.268-11.861c1.344-4.174,2.408-8.459,3.27-12.788c0.861-4.327,1.548-8.712,2.006-13.095
							L193.816,360.826z"/>
					</g>
					<g>
						<path style="fill:#3E3B78;" d="M301.981,419.328c-0.785,3.422-1.214,6.983-1.312,10.509
							c-0.102,3.535,0.156,7.065,0.931,10.495c0.371,1.739,0.804,3.458,1.253,5.188c0.448,1.724,0.922,3.493,1.173,5.34
							c0.505,3.711,0.13,7.35-0.19,10.928c-0.411,3.445,0.089,6.865,0.975,10.262c0.878,3.392,2.091,6.735,3.279,10.115
							c1.19,3.38,2.374,6.806,3.252,10.362c0.878,3.549,1.441,7.248,1.345,11.004l-2.94-0.11c0.329-6.861-1.774-13.705-4-20.459
							c-1.11-3.396-2.272-6.818-3.113-10.378c-0.23-0.882-0.366-1.799-0.552-2.696c-0.162-0.905-0.242-1.834-0.364-2.748
							c-0.044-0.93-0.097-1.861-0.09-2.794c0.071-0.923,0.1-1.906,0.212-2.776c0.397-3.525,0.822-7.073,0.426-10.487
							c-0.193-1.709-0.607-3.417-1.022-5.163c-0.413-1.744-0.816-3.505-1.153-5.275c-0.725-3.573-0.912-7.246-0.728-10.858
							c0.183-3.624,0.689-7.198,1.581-10.734L301.981,419.328z"/>
					</g>
					<g>
						<path style="fill:#3E3B78;" d="M227.664,439.449c-0.934,5.3-1.767,10.627-2.522,15.956
							c-0.729,5.324-1.451,10.691-1.861,16.005c-0.197,2.662-0.241,5.315-0.218,8.003c0.027,2.687,0.024,5.438-0.16,8.17
							c-0.358,5.471-1.226,10.849-2.192,16.182l-2.922-0.582c1.111-5.245,2.117-10.51,2.62-15.796
							c0.256-2.645,0.337-5.29,0.39-7.995c0.056-2.704,0.183-5.446,0.464-8.156c0.581-5.426,1.458-10.734,2.349-16.071
							c0.916-5.326,1.906-10.63,3.001-15.924L227.664,439.449z"/>
					</g>
				</g>
				<g>
					<path style="fill:#FF9191;" d="M219.344,94c0,0,4.312,14.602,4.125,20.227c-0.187,5.625,0.515,13.361,4.219,19.781
						c3.164,5.484,6.938,5.625,6.938,5.625v9.469c0,0-8.25,3.656-11.25,4.969s-2.25,23.906,15.938,23.906
						c18.187,0,33.281-11.719,37.219-27.094l-11.344-3.187l-2.344-32.438c0,0,4.047-0.252,6.094-5.438
						c1.406-3.563,0.656-6.375,0.375-9.563l-6.281-15.187l-25.313-10.406L219.344,94z"/>
					<path style="fill:#FF6363;" d="M233.231,116.744c0,0,5.246-3.729,6.511-1.948C241.008,116.577,234.931,116.824,233.231,116.744
						z"/>
					<path style="fill:#FF6363;" d="M234.625,139.633c4.102,0.914,16.828-1.055,25.125-19.195c0,0,1.969,4.148-2.109,10.336
						c-4.078,6.188-5.063,15.112-13.781,16.453c-7.312,1.125-9.234-2.766-9.234-2.766V139.633z"/>
					<g>
						<path style="fill:#FF6363;" d="M267.77,102.777c-0.226-0.632-0.456-1.264-0.766-1.829c-0.316-0.552-0.739-1.042-1.198-0.933
							c-0.526,0.073-0.909,0.484-1.168,1.016c-0.255,0.532-0.392,1.144-0.401,1.758c-0.012,0.613,0.077,1.231,0.287,1.803
							c0.209,0.56,0.52,1.205,0.751,1.861c0.235,0.653,0.421,1.482,0.184,2.263c-0.213,0.771-0.692,1.347-1.175,1.842
							c-0.11,0.113-0.29,0.115-0.403,0.005c-0.097-0.095-0.112-0.242-0.044-0.353l0.003-0.005c0.344-0.561,0.637-1.139,0.736-1.69
							c0.105-0.549-0.074-1.095-0.297-1.693c-0.235-0.612-0.525-1.18-0.764-1.894c-0.227-0.707-0.305-1.451-0.262-2.185
							c0.042-0.734,0.227-1.464,0.583-2.137c0.192-0.331,0.436-0.644,0.76-0.897c0.337-0.258,0.721-0.411,1.152-0.438
							c0.445-0.038,0.91,0.184,1.172,0.483c0.28,0.292,0.442,0.626,0.583,0.953c0.26,0.66,0.424,1.326,0.539,1.998
							c0.013,0.077-0.038,0.149-0.115,0.163C267.858,102.881,267.793,102.84,267.77,102.777z"/>
					</g>
					<path style="fill:#003626;" d="M236.854,99.283c0,0,5.919-3.481,11.083-0.956l0.984-2.867
						C248.921,95.46,240.268,93.275,236.854,99.283z"/>
					<g>
						<path style="fill:#003626;" d="M240.336,102.901c1.578-2.034,4.578-2.503,5.678-0.758l-0.354,0.758
							C245.661,102.901,242.625,101.476,240.336,102.901z"/>
						<path style="fill:#003626;" d="M246.509,104.041c0,1.574-0.869,2.851-1.942,2.851s-1.942-1.276-1.942-2.851
							c0-1.574,0.869-2.851,1.942-2.851S246.509,102.467,246.509,104.041z"/>
					</g>
					<g>
						<path style="fill:#003626;" d="M224.474,105.363c1.279-2.035,4.024-2.747,5.207-1.227l-0.259,0.737
							C229.422,104.873,226.47,103.829,224.474,105.363z"/>
						<path style="fill:#003626;" d="M230.315,105.855c0.145,1.463-0.546,2.729-1.542,2.828c-0.997,0.099-1.922-1.007-2.067-2.471
							c-0.145-1.463,0.546-2.729,1.542-2.828C229.245,103.286,230.17,104.392,230.315,105.855z"/>
					</g>
					<path style="fill:#003626;" d="M229.681,101.476l0.209-2.438c0,0-4.406-0.938-6.656,2.438
						C225.718,100.351,229.681,101.476,229.681,101.476z"/>
					<polyline style="fill:none;stroke:#9C5959;stroke-linecap:round;stroke-linejoin:round;stroke-miterlimit:10;" points="
						233.231,105.009 233.231,116.744 238.356,116.302 					"/>
					<path style="fill:#FFFFFF;" d="M231.133,123.672c0,0,9.167-1.547,15.376-6.047c-0.189,6.117-5.533,11.109-8.767,11.672
						C234.508,129.859,232.258,124.515,231.133,123.672z"/>
					<path style="fill:#FF7878;" d="M236.265,133.445c0,0,3.375-2.813,4.781-2.461C242.453,131.336,235.211,135.203,236.265,133.445
						z"/>
					
						<line style="fill:none;stroke:#FF6363;stroke-linecap:round;stroke-linejoin:round;stroke-miterlimit:10;" x1="248.781" y1="159.226" x2="265.821" y2="159.226"/>
					<g>
						<path style="fill:#00946A;" d="M269.312,100.257c0,0,1.969-7.875,3.375-15.469c1.406-7.594-4.641-17.156-16.594-14.344
							c-2.531-12.234-27.281-16.313-35.437-5.063c-20.391-3.797-28.602,5.71-27.938,19.02c0.563,11.262,14.578,24.574,33.422,7.84
							c10.266,1.688,17.859-3.656,20.391-6.047c0.703,6.891,6.469,9.422,10.688,10.266c-0.844,5.203,3.938,13.922,3.938,13.922
							s-1.406-11.109,2.813-13.078C268.187,95.336,269.312,100.257,269.312,100.257z"/>
						<g>
							<path style="fill:#007050;" d="M220.859,90.057c-1.558,0.109-3.091-0.076-4.606-0.47c-1.505-0.41-2.979-1.068-4.28-2.031
								c-1.317-0.937-2.403-2.265-3.062-3.753c-0.724-1.479-0.868-3.133-0.776-4.679c0.016-0.277,0.254-0.488,0.53-0.471
								c0.214,0.013,0.388,0.157,0.449,0.35l0.019,0.06c0.436,1.395,0.742,2.749,1.458,3.907c0.66,1.164,1.463,2.25,2.549,3.085
								c1.06,0.852,2.284,1.542,3.6,2.078c1.311,0.534,2.72,0.964,4.137,1.231l0.023,0.004c0.189,0.036,0.313,0.217,0.277,0.406
								C221.146,89.933,221.012,90.046,220.859,90.057z"/>
						</g>
						<g>
							<path style="fill:#007050;" d="M202.136,73.746c-0.747,2.366-0.92,4.85-0.492,7.224c0.419,2.37,1.388,4.639,2.875,6.54
								c1.488,1.903,3.496,3.373,5.72,4.393c2.241,1.004,4.689,1.541,7.191,1.816l0.011,0.001c0.155,0.017,0.266,0.156,0.249,0.31
								c-0.016,0.143-0.136,0.249-0.277,0.251c-2.568,0.027-5.186-0.321-7.639-1.277c-2.462-0.919-4.707-2.507-6.396-4.574
								c-1.701-2.053-2.834-4.595-3.166-7.244c-0.333-2.64,0.07-5.384,1.277-7.714c0.089-0.173,0.302-0.24,0.475-0.151
								c0.154,0.08,0.225,0.258,0.174,0.419L202.136,73.746z"/>
						</g>
						<g>
							<path style="fill:#007050;" d="M264.441,76.4c0.561,0.218,0.987,0.535,1.37,0.93c0.382,0.387,0.703,0.83,0.945,1.31
								c0.492,0.957,0.745,2.008,0.799,3.047c0.07,0.519,0.016,1.036,0.029,1.552c-0.047,0.511-0.097,1.023-0.175,1.527
								c-0.104,0.499-0.176,1.004-0.309,1.494l-0.428,1.457c-0.028,0.094-0.126,0.148-0.22,0.12
								c-0.087-0.025-0.139-0.111-0.125-0.198l0.002-0.012l0.236-1.472l0.167-1.47c0.06-0.98,0.09-1.958-0.033-2.912
								c-0.106-0.955-0.355-1.882-0.759-2.716c-0.396-0.822-1.017-1.591-1.739-2.05l-0.049-0.031
								c-0.151-0.096-0.195-0.296-0.099-0.447C264.135,76.395,264.3,76.345,264.441,76.4z"/>
						</g>
						<g>
							<path style="fill:#007050;" d="M257.432,77.977c0.599,0.051,1.098,0.235,1.576,0.506c0.476,0.264,0.908,0.598,1.276,0.991
								c0.742,0.78,1.281,1.717,1.625,2.698c0.214,0.479,0.307,0.989,0.465,1.481c0.099,0.504,0.195,1.009,0.262,1.515
								c0.041,0.508,0.114,1.013,0.124,1.521l-0.001,1.518c0,0.098-0.08,0.177-0.178,0.177c-0.09,0-0.165-0.068-0.176-0.155
								l-0.001-0.012l-0.189-1.479l-0.254-1.458c-0.219-0.957-0.465-1.904-0.852-2.785c-0.371-0.886-0.871-1.705-1.494-2.392
								c-0.611-0.677-1.424-1.24-2.246-1.477l-0.055-0.016c-0.172-0.05-0.271-0.229-0.221-0.401
								C257.137,78.059,257.281,77.964,257.432,77.977z"/>
						</g>
						<g>
							<path style="fill:#007050;" d="M248.84,81.93c0.581-0.156,1.112-0.153,1.654-0.061c0.537,0.086,1.058,0.253,1.537,0.497
								c0.963,0.48,1.789,1.178,2.447,1.983c0.364,0.377,0.626,0.826,0.941,1.234c0.265,0.44,0.527,0.883,0.762,1.335
								c0.211,0.464,0.452,0.914,0.635,1.388l0.516,1.428c0.033,0.092-0.014,0.194-0.107,0.227
								c-0.085,0.031-0.178-0.007-0.218-0.086l-0.005-0.011l-0.681-1.326l-0.735-1.284c-0.532-0.825-1.086-1.632-1.75-2.328
								c-0.65-0.707-1.4-1.307-2.219-1.74c-0.806-0.428-1.761-0.681-2.615-0.624l-0.058,0.004c-0.178,0.012-0.333-0.123-0.345-0.302
								C248.59,82.107,248.693,81.969,248.84,81.93z"/>
						</g>
					</g>
				</g>
				<g>
					<path style="fill:#FFD6D6;" d="M227.748,152.144l-2.255,0.995c0,0-7.087,19.962,14.007,23.243l0.656-1.875
						c0,0,18.448-1.506,26.625-10.244c8.177-8.739,8.906-15.725,8.906-15.725s28.783,9.006,46.406,21.656
						c18.937,13.594,38.062,28.5,41.437,51s4.5,28.125,7.594,43.312c3.094,15.188,1.969,21.094,6.188,24.469
						c4.219,3.375,0,10.688,0,10.688l-55.687,10.125l-8.093-21.364l-8.5,48.364c0,0,5.625-0.281-0.281,10.688
						c0,0,4.781,3.938-7.031,16.313c0,0-97.875,0-111.656,0s-25.875-10.406-10.406-21.656c0,0-3.094-10.688,3.938-18.281
						l1.688-32.906l-10.406-74.531l-15.75-16.031c0,0,5.063-10.5,19.125-22.406C188.312,166.07,222.745,148.062,227.748,152.144z"/>
					<path style="fill:#FFBABA;" d="M315.07,292.487l-19.889-55.226c0,0-8.713,36.902-1.963,57.527
						c5.956,18.199,10.889,25.741,13.384,33.06l6.929-39.424L315.07,292.487z"/>
					<path style="fill:none;stroke:#FFB8B8;stroke-linecap:round;stroke-linejoin:round;stroke-miterlimit:10;" d="M297.531,243.813
						c5.813-24.399,27.333-49.57,51.281-50.274"/>
					<path style="fill:none;stroke:#FFB8B8;stroke-linecap:round;stroke-linejoin:round;stroke-miterlimit:10;" d="M303.447,260.212
						c0,0,31.664-33.14,61.318-26.247"/>
					<path style="fill:none;stroke:#FFB8B8;stroke-linecap:round;stroke-linejoin:round;stroke-miterlimit:10;" d="M311.177,281.678
						c0,0,25.393-19.621,59.968-13.259"/>
					<path style="fill:none;stroke:#FFB8B8;stroke-linecap:round;stroke-linejoin:round;stroke-miterlimit:10;" d="M312.83,165.456
						c0,0-15.299,12.52-22.175,76.833c-5.678,53.11-9.061,61.922-11.311,82.336s-5.068,33.352-3.005,38.602"/>
					<path style="fill:none;stroke:#FFB8B8;stroke-linecap:round;stroke-linejoin:round;stroke-miterlimit:10;" d="M307.942,272.695
						c0,0-3.273,4.093-7.217,28.656c-3.944,24.562-6.129,36.562-6.068,43.312c0.061,6.75-1.251,13.5-5.376,18.563"/>
					<path style="fill:none;stroke:#FFB8B8;stroke-linecap:round;stroke-linejoin:round;stroke-miterlimit:10;" d="M289.281,154.164
						c0,0-15.233,24.75-23.46,73.312c-8.227,48.562-13.289,83.182-15.821,100.372c-2.532,17.19-2.625,34.721-2.625,34.721"/>
					<path style="fill:none;stroke:#FFB8B8;stroke-linecap:round;stroke-linejoin:round;stroke-miterlimit:10;" d="M239.5,176.382
						c-4.219,20.625-7.875,34.969-6.188,58.875c1.688,23.906,3.377,32.344-0.421,43.875c-3.798,11.531-5.86,20.588-2.298,36.028
						c3.563,15.44,2.035,18.815-1.842,28.097c-3.877,9.281-3.043,15.623-0.97,19.312"/>
					<path style="fill:none;stroke:#FFB8B8;stroke-linecap:round;stroke-linejoin:round;stroke-miterlimit:10;" d="M215.04,154.28
						c-4.228,15.728-4.509,77.331-3.946,104.326c0.563,26.995-0.208,98.339,1.865,103.964"/>
					<path style="fill:none;stroke:#FFB8B8;stroke-linecap:round;stroke-linejoin:round;stroke-miterlimit:10;" d="M182.406,171.879
						c-6.188,20.534,10.688,82.692,10.875,110.676s-2.392,64.639,2.108,80.014"/>
					<path style="fill:#FFBABA;" d="M245.031,234.038c0,0,18.796-9.094,37.218,0C282.249,234.038,256.187,241.538,245.031,234.038z"
						/>
					<g>
						<path style="fill:#DE9393;" d="M298.192,231.31c-1.313-2.046-2.401-4.173-3.376-6.377c-0.964-2.204-1.767-4.483-2.386-6.824
							c-0.598-2.348-0.955-4.767-1.06-7.216c-0.07-2.456,0.244-4.928,0.874-7.342l1.948,0.602c-0.643,2.163-1.025,4.421-1.043,6.721
							c0.016,2.297,0.266,4.608,0.759,6.884c0.513,2.271,1.21,4.51,2.07,6.69c0.865,2.172,1.873,4.323,3.053,6.319L298.192,231.31z"
							/>
					</g>
					<line style="fill:none;stroke:#DE9393;stroke-miterlimit:10;" x1="313.531" y1="288.424" x2="291.671" y2="227.476"/>
					<path style="fill:#D43737;" d="M245.031,234.038h37.218c0,0,0.405,36.938-20.632,36.938
						C240.581,270.976,246.649,236.851,245.031,234.038z"/>
					<path style="fill:none;stroke:#3052B3;stroke-miterlimit:10;" d="M247.375,182.312c0,1.437-1.165,2.602-2.602,2.602
						c-1.437,0-2.602-1.165-2.602-2.602s1.165-2.602,2.602-2.602C246.21,179.71,247.375,180.875,247.375,182.312z"/>
					<path style="fill:none;stroke:#3052B3;stroke-miterlimit:10;" d="M242.101,207.906c0,1.437-1.165,2.602-2.602,2.602
						c-1.437,0-2.602-1.165-2.602-2.602s1.165-2.602,2.602-2.602C240.937,205.304,242.101,206.469,242.101,207.906z"/>
					<path style="fill:none;stroke:#3052B3;stroke-miterlimit:10;" d="M241.531,232.055c0,1.437-1.165,2.602-2.602,2.602
						s-2.602-1.165-2.602-2.602s1.165-2.602,2.602-2.602S241.531,230.618,241.531,232.055z"/>
					<g>
						<polygon style="fill:#DE9393;" points="169.107,202.814 181.66,290.042 180.671,290.192 166.83,203.158 						"/>
					</g>
				</g>
				<g>
					<g>
						<path style="fill:#FF9191;" d="M278.031,395.007l9.342-5.633l43.908-54.84l-0.75-3.934l43.125-9.141
							c0,0,5.531,12.516-1.125,29.203c-7.72,19.353-70.687,57.562-70.687,57.562l-4.736,7.978
							C297.107,416.204,284.034,408.792,278.031,395.007z"/>
						<path style="fill:#FF6363;" d="M330.531,330.601l0.75,3.934l-13.084,16.342c13.772-6.307,38.089-9.881,51.27-11.443
							c3.717-0.44,6.477-3.683,6.291-7.421c-0.326-6.527-2.102-10.552-2.102-10.552L330.531,330.601z"/>
						<path style="fill:#FF7878;" d="M366.391,352.185c-1.757,2.371-4.143,3.581-5.328,2.702c-1.186-0.879-0.722-3.513,1.035-5.884
							c1.757-2.371,4.143-3.581,5.328-2.702C368.611,347.18,368.148,349.814,366.391,352.185z"/>
						<g>
							<polygon style="fill:#008C64;" points="284.218,389.944 288.718,385.913 305.312,407.523 300.725,411.507 							"/>
							<path style="fill:#FFD6D6;" d="M301.462,398.71c0,3.699-2.998,6.697-6.697,6.697s-6.697-2.998-6.697-6.697
								c0-3.699,2.999-6.697,6.697-6.697S301.462,395.011,301.462,398.71z"/>
							<path style="fill:#003626;" d="M299.024,398.71c0,2.352-1.907,4.259-4.259,4.259s-4.259-1.907-4.259-4.259
								c0-2.352,1.907-4.259,4.259-4.259S299.024,396.358,299.024,398.71z"/>
							<polyline style="fill:none;stroke:#FFD6D6;stroke-width:0.25;stroke-miterlimit:10;" points="293.687,395.757 
								294.765,398.71 292,398.71 							"/>
						</g>
					</g>
					<path style="fill:#D43737;" d="M317.5,310.615c-0.464-1.227,0.056-2.611,1.219-3.216c4.054-2.111,14.196-6.71,30.187-9.563
						c18.11-3.231,33.609-1.547,33.609,1.266s-1.406,4.359-1.547,6.469c-0.141,2.109-3,19.266-1.781,20.813
						c1.219,1.547,2.203,4.359-1.594,4.219c-3.797-0.141-28.098-5.354-51.75,3.656c-2.953,1.125-1.547-1.266-2.25-5.484
						C323.047,325.497,319.195,315.099,317.5,310.615z"/>
					<g>
						<path style="fill:#A12A2A;" d="M329.208,324.117c3.547-1.246,7.086-2.363,10.659-3.432c3.569-1.067,7.155-2.068,10.76-2.996
							c3.603-0.935,7.222-1.805,10.859-2.59c3.632-0.809,7.291-1.492,10.952-2.145l0.185,0.983
							c-3.623,0.768-7.24,1.564-10.826,2.486c-3.592,0.897-7.162,1.879-10.712,2.924c-3.552,1.038-7.083,2.148-10.591,3.321
							c-3.503,1.172-7.007,2.405-10.422,3.731L329.208,324.117z"/>
					</g>
					<g>
						<path style="fill:#A12A2A;" d="M370.965,310.642c-5.874-0.134-11.763-0.187-17.644-0.16
							c-5.88,0.038-11.764,0.137-17.616,0.507c-2.913,0.208-5.866,0.423-8.648,1.038c-0.673,0.158-1.39,0.372-1.831,0.659
							c-0.094,0.062-0.175,0.147-0.151,0.129c0.001,0.011-0.068,0.185-0.04,0.232c0.007,0.143,0.053,0.28,0.27,0.447
							c0.406,0.328,1.096,0.543,1.758,0.69c0.677,0.148,1.386,0.236,2.1,0.287c2.867,0.2,5.801-0.012,8.686-0.398
							c2.886-0.4,5.76-0.995,8.495-1.943l0.341,0.94c-2.821,1.022-5.736,1.665-8.676,2.115c-2.943,0.434-5.915,0.696-8.932,0.53
							c-0.754-0.044-1.513-0.125-2.277-0.281c-0.762-0.174-1.544-0.345-2.314-0.92c-0.378-0.262-0.761-0.817-0.773-1.41
							c-0.017-0.152-0.004-0.289,0.029-0.418c0.04-0.145,0.023-0.236,0.122-0.423c0.166-0.363,0.393-0.516,0.589-0.671
							c0.798-0.52,1.533-0.694,2.28-0.897c2.967-0.697,5.913-0.941,8.866-1.197c5.903-0.456,11.803-0.637,17.703-0.758
							c5.901-0.11,11.795-0.139,17.702-0.087L370.965,310.642z"/>
					</g>
				</g>
			</g>
			<g>
				<path style="fill:#FCF3D4;" d="M214.549,123.54l-20.197,2.021c-1.588-12.167-10.479-23.203-24.438-23.21
					c-16.121-0.008-25.557,12.839-27.86,28.192c-2.303,15.354,7.901,30.927,22.377,30.927c13.726,0,25.671-10.453,29.21-24.437
					L214.549,123.54z"/>
				<g>
					<path style="fill:#FF9191;" d="M161.862,140.287l-0.964-13.152c0,0,1.286-0.162,4.253-0.535
						c2.967-0.373,8.935-4.037,8.152-10.267c0,0,2.707-0.039,3.043,2.631c0.336,2.67-0.453,5.984-0.453,5.984
						s2.286-0.158,3.549-0.446c2.243-0.512,3.648,3.359,1.102,4.683c0,0,2.401,3.114,0.239,5.093c0,0,2.226,1.729-0.727,3.808
						c0,0,1.012,3.255-1.743,3.719C175.56,142.269,161.862,140.287,161.862,140.287z"/>
					<rect x="156.63" y="125.112" style="fill:#673EB0;" width="6.055" height="17.426"/>
				</g>
			</g>
			<g>
				<path style="fill:#FCF3D4;" d="M336.103,79.972c-1.748-15.32-15.735-23.078-32.432-14.395
					c-14.609,7.597-21.329,20.161-16.655,35.199c0.258,0.83,0.567,1.612,0.909,2.361L277.89,113.16l14.902-3.596
					c7.778,6.553,20.293,6.327,27.095,1.919C330.612,104.531,337.768,94.561,336.103,79.972z"/>
				<path style="fill:#D43737;" d="M307.855,85.161c0,0,3.448-8.576,8.862-12.052c5.415-3.476,10.327,2.741,5.116,13.238
					c-5.211,10.497-10.337,18.123-10.337,18.123s-5.514-2.9-10.902-11.052c-5.388-8.151-3.629-14.186-0.621-15.101
					C304.307,77.001,307.855,85.161,307.855,85.161z"/>
			</g>
			<g>
				<path style="fill:#FF9191;" d="M511.815,45.419L401.846,88.49c0,0-16.88-6.514-22.933-9.588
					c-6.052-3.074-13.817-11.836-15.774-17.14c0,0-4.745,1.398-3.906,6.144c0.84,4.746,9.333,18.478,9.333,18.478
					s-5.744,1.918-14.01,4.677c-8.266,2.759-5.412,9.081-0.444,13.365c-0.723,6.757,1.121,10.608,8.771,11.219
					c-1.84,6.199,2.182,8.765,7.542,8.093c-0.222,3.797,1.623,7.649,10.052,4.463c8.43-3.186,28.358-15.982,28.358-15.982
					s3.462,0.892,6.086-1.287l113.172-18.979L511.815,45.419z"/>
				<path style="fill:#FF6363;" d="M362.104,96.918c0,0-5.528-0.109-4.941,1.649C357.751,100.326,362.104,96.918,362.104,96.918z"/>
				<path style="fill:#FF6363;" d="M366.352,106.37c0,0-5.751,1.175-4.843,2.64C362.418,110.476,366.352,106.37,366.352,106.37z"/>
				<path style="fill:#FF6363;" d="M371.979,116.747c0,0-4.606,0.7-3.517,2.291C369.552,120.629,371.979,116.747,371.979,116.747z"
					/>
				<path style="fill:#FFFFFF;" d="M364.06,63.76c0,0-2.78,0.608-1.699,2.915c1.08,2.307,1.471,2.549,1.471,2.549l2.695-1.649
					L364.06,63.76z"/>
				
					<line style="fill:none;stroke:#FF6363;stroke-linecap:round;stroke-linejoin:round;stroke-miterlimit:10;" x1="406.544" y1="105.35" x2="408.36" y2="108.56"/>
				<path style="fill:#FF6363;" d="M379.159,121.982c0,0-4.606,0.7-3.517,2.291C376.732,125.864,379.159,121.982,379.159,121.982z"
					/>
				<path style="fill:#E0B519;" d="M428.781,80.878c0,0-0.141-0.422,1.688-6.75c1.828-6.328,4.078-10.266,16.594-11.391
					c12.516-1.125,17.859-4.359,24.891-12.094c7.031-7.734,39.937-9.563,39.937-9.563l20.391,54.703c0,0-10.969,5.773-27.422,9.566
					c-16.453,3.793-24.328-2.833-34.172,1.605c-9.844,4.438-23.484,13.016-30.656,5.282
					C432.859,104.503,428.781,80.878,428.781,80.878z"/>
				<g>
					<path style="fill:#A38412;" d="M475.554,73.693c-3.249,2.966-6.473,6.013-9.567,9.162c-3.097,3.147-6.141,6.36-8.886,9.791
						c-1.354,1.716-2.699,3.485-3.626,5.39c-0.218,0.474-0.41,0.963-0.485,1.425c-0.073,0.474-0.011,0.835,0.247,1.013
						c0.327,0.195,0.847,0.401,1.314,0.414c0.483,0.033,0.982-0.025,1.472-0.166c1.977-0.615,3.694-2.105,5.184-3.669
						c1.507-1.575,2.831-3.362,3.995-5.192l0.845,0.535c-1.271,1.874-2.67,3.611-4.213,5.255c-0.774,0.817-1.608,1.583-2.509,2.283
						c-0.897,0.699-1.893,1.317-3.033,1.687c-1.144,0.35-2.466,0.386-3.639-0.326c-0.323-0.218-0.571-0.583-0.669-0.949
						c-0.095-0.366-0.085-0.708-0.052-1.03c0.083-0.638,0.288-1.197,0.511-1.737c0.943-2.126,2.249-3.958,3.568-5.769
						c2.682-3.587,5.594-6.963,8.559-10.286c2.989-3.306,5.997-6.573,9.124-9.771L475.554,73.693z"/>
				</g>
				<g>
					<polygon style="fill:#A38412;" points="493.647,72.316 473.857,91.212 473.142,90.512 491.601,70.314 					"/>
				</g>
				<path style="fill:#FF6363;" d="M416.204,110.715l18.603-3.12l-9.13-28.439l-19.637,7.691
					C408.498,91.783,414.152,103.494,416.204,110.715z"/>
				<path style="fill:#FCF3D4;" d="M412.173,82.425c0,0,6.432,27.995,7.045,30.797c0.984,4.5,4.219,0.984,7.875,0
					c3.656-0.984,12.938-0.984,12.938-0.984l-9.563-38.109c0,0-2.391,3.094-8.438,3.938
					C415.984,78.909,411.892,77.362,412.173,82.425z"/>
				<g>
					<polygon style="fill:#826A0F;" points="414.211,85.28 430.67,80.612 430.97,81.566 414.803,87.163 					"/>
				</g>
				<line style="fill:none;stroke:#826A0F;stroke-miterlimit:10;" x1="416.333" y1="93.429" x2="432.645" y2="88.296"/>
				
					<line style="fill:none;stroke:#826A0F;stroke-width:0.9138;stroke-miterlimit:10;" x1="419.075" y1="102.716" x2="435.387" y2="98.43"/>
				
					<line style="fill:none;stroke:#826A0F;stroke-width:1.0417;stroke-miterlimit:10;" x1="420.201" y1="109.403" x2="437.355" y2="107.717"/>
			</g>
			<g>
				<path style="fill:#FFB5A3;" d="M524.405,238.199c0,0-84.555,3.23-88.259,2.663l-18.97-13.288c0,0-8.252-10.094-9.931-20.022
					c0,0-5.124-1.353-6.563,3.99c-1.439,5.343,5.052,19.662,5.052,19.662s-9.017,0.764-15.078,1.147
					c-6.061,0.383-7.257,10.261-1.387,12.78c0,0-6.473,7.373,2.577,13.235c0,0-4.47,5.584,4.726,10.322c0,0-1.842,4.878,7.655,7.073
					c9.497,2.195,23.643-1.249,30.493-7.07l89.685,13.865V238.199z"/>
				<path style="fill:#6E5111;" d="M405.318,214.236c-1.724-5.798,2.077-5.891,2.077-5.891l0.002,0.003
					c0.381,1.871,0.979,3.739,1.7,5.534L405.318,214.236z"/>
				
					<path style="fill:none;stroke:#FF9191;stroke-width:0.9137;stroke-linecap:round;stroke-linejoin:round;stroke-miterlimit:10;" d="
					M436.01,264.098c0,0-0.671,2.769-7.424,0.781"/>
				<path style="fill:#FF9D85;" d="M397.689,237.77c0,0-6.41-1.785-6.618,0.583C390.863,240.721,397.689,237.77,397.689,237.77z"/>
				<path style="fill:#FF9D85;" d="M400.242,250.767c0,0-6.41-1.785-6.618,0.583S400.242,250.767,400.242,250.767z"/>
				<path style="fill:#FF9D85;" d="M403.238,261.043c0,0-5.454-1.519-5.63,0.496C397.431,263.553,403.238,261.043,403.238,261.043z"
					/>
				<path style="fill:#FF9D85;" d="M406.284,270.288c0,0-4.102-1.142-4.235,0.373C401.916,272.176,406.284,270.288,406.284,270.288z
					"/>
				<path style="fill:#FF9191;" d="M488.179,276.955l-5.977-37.23c-10.167,0.347-20.47,0.68-28.76,0.908
					c2.369,3.396,4.986,8.672,5.573,15.961c0.573,7.112,0.562,12.414,0.413,15.916L488.179,276.955z"/>
				<polygon style="fill:#00946A;" points="464.351,239.273 466.468,277.538 527.405,287.851 526.468,235.351 				"/>
				<path style="fill:#007050;" d="M518.027,277.091l9.199,0.709l-0.019-1.058l-9.223-0.711l-0.356-8.792l9.418,0.484l-0.019-1.056
					l-9.442-0.485l-0.355-8.774l9.636,0.248l-0.019-1.054l-9.66-0.248l-0.355-8.756h9.854l-0.019-1.054h-9.878l-0.427-10.554
					l-1.052,0.066l0.425,10.487h-9.487l-0.401-9.89l-1.052,0.066l0.398,9.823h-9.488l-0.374-9.226l-1.052,0.066l0.371,9.16h-9.487
					l-0.347-8.562l-1.052,0.066l0.344,8.496h-9.487l-0.32-7.898l-1.052,0.066l0.317,7.832h-8.815l0.058,1.054h8.8l0.31,7.644
					l-8.699-0.223l0.058,1.055l8.683,0.223l0.31,7.66l-8.582-0.441l0.059,1.059l8.566,0.44l0.311,7.676l-8.464-0.652l0.059,1.062
					l8.448,0.651l0.211,5.213l1.062,0.18l-0.215-5.311l9.517,0.734l0.251,6.194l1.062,0.18l-0.255-6.292l9.516,0.733l0.291,7.175
					l1.062,0.18l-0.295-7.273l9.517,0.733l0.33,8.156l1.062,0.18l-0.334-8.254l9.517,0.733l0.37,9.138l1.062,0.18L518.027,277.091z
					 M474.666,247.596h9.488l0.321,7.915l-9.497-0.244L474.666,247.596z M475.019,256.323l9.497,0.244l0.321,7.932l-9.507-0.488
					L475.019,256.323z M475.685,272.771l-0.312-7.703l9.507,0.488l0.322,7.948L475.685,272.771z M485.208,247.596h9.487l0.332,8.187
					l-9.496-0.244L485.208,247.596z M485.572,256.594l9.496,0.244l0.332,8.204l-9.506-0.489L485.572,256.594z M486.26,273.586
					l-0.323-7.975l9.506,0.488l0.333,8.22L486.26,273.586z M495.749,247.596h9.487l0.343,8.458l-9.497-0.244L495.749,247.596z
					 M496.124,256.865l9.497,0.244l0.343,8.475l-9.507-0.489L496.124,256.865z M496.834,274.401l-0.334-8.247l9.507,0.488
					l0.344,8.493L496.834,274.401z M506.291,247.596h9.488l0.354,8.729l-9.497-0.244L506.291,247.596z M506.677,257.136l9.497,0.244
					l0.354,8.747l-9.507-0.489L506.677,257.136z M507.409,275.216l-0.345-8.52l9.507,0.489l0.355,8.765L507.409,275.216z"/>
				<path style="fill:#00402D;" d="M476.077,255.952c0,0.919-0.745,1.664-1.664,1.664c-0.919,0-1.664-0.745-1.664-1.664
					c0-0.919,0.745-1.664,1.664-1.664C475.332,254.288,476.077,255.033,476.077,255.952z"/>
				<path style="fill:#00402D;" d="M486.872,255.952c0,0.919-0.745,1.664-1.664,1.664c-0.919,0-1.664-0.745-1.664-1.664
					c0-0.919,0.745-1.664,1.664-1.664C486.127,254.288,486.872,255.033,486.872,255.952z"/>
				<line style="fill:none;stroke:#00402D;stroke-miterlimit:10;" x1="465.525" y1="260.494" x2="490.093" y2="261.601"/>
			</g>
			<g>
				<polygon style="fill:#6D65CF;" points="64.844,78.112 43.281,121.445 -67.343,84.199 -29.843,22.612 				"/>
				<g>
					<polygon style="fill:#3E3B78;" points="7.478,44.488 4.204,42.569 -28.479,97.284 -27.187,97.719 					"/>
					<polygon style="fill:#3E3B78;" points="-13.561,32.156 -49.77,90.116 -45.751,91.469 -12.525,32.763 					"/>
					<polygon style="fill:#3E3B78;" points="31.834,58.764 26.699,55.754 4.859,108.508 6.391,109.024 					"/>
					<polygon style="fill:#3E3B78;" points="16.273,49.643 15.063,48.933 -13.399,102.361 -7.905,104.211 					"/>
				</g>
				<path style="fill:#FFB5A3;" d="M56.125,80.737c0,0,19.031,9.469,22.781,10.781l24.375-3c0,0,12.75-5.344,19.264-13.804
					c0,0,5.471,1.284,4.159,7.002c-1.313,5.719-14.516,15.895-14.516,15.895s8.063,5.203,13.547,8.578
					c5.484,3.375,1.688,13.219-5.063,12.656c0,0,2.391,10.125-9,11.109c0,0,1.406,7.453-9.563,7.312c0,0-0.703,5.484-10.688,2.813
					c-9.984-2.672-21.516-12.937-25.031-21.797l-22.781-8.156L56.125,80.737z"/>
				<path style="fill:#FF9191;" d="M116.453,108.201c0,0,6.891,1.519,5.906,3.84S116.453,108.201,116.453,108.201z"/>
				<path style="fill:#FCF3D4;" d="M121.023,81.933c4.5-4.57,0.988-6.549,0.988-6.549l-0.003,0.001
					c-1.288,1.563-2.778,3.013-4.346,4.335L121.023,81.933z"/>
				<path style="fill:#FF9191;" d="M77.149,90.807c-5.962-2.576-21.024-10.07-21.024-10.07L43.61,110.128l8.082,2.894
					c2.67,0.956,5.55-0.299,6.861-2.814c1.103-2.116,2.879-4.189,5.635-5.996C72.065,99.046,75.636,93.763,77.149,90.807z"/>
				
					<path style="fill:none;stroke:#FF9191;stroke-width:0.9137;stroke-linecap:round;stroke-linejoin:round;stroke-miterlimit:10;" d="
					M67.469,113.342c0,0-0.75,2.927,6.563,4.427"/>
				<path style="fill:#FF9191;" d="M107.594,118.663c0,0,6.891,1.519,5.906,3.84C112.516,124.823,107.594,118.663,107.594,118.663z"
					/>
				<path style="fill:#FF9191;" d="M99.674,126.793c0,0,5.863,1.293,5.025,3.267C103.862,132.034,99.674,126.793,99.674,126.793z"/>
				<path style="fill:#FF9191;" d="M92.221,133.933c0,0,4.41,0.972,3.78,2.457C95.371,137.875,92.221,133.933,92.221,133.933z"/>
				<path style="fill:#867DFF;" d="M60.915,70.313c-5.314-1.706-9.04-2.58-12.29-7.32c-3.251-4.741-7.228-6.421-7.228-6.421
					c-4.296,9.859-8.615,19.9-12.484,28.953c5.514,3.513,16.673,10.425,16.673,10.425l-18.605-5.9
					c-6.962,16.328-12.036,28.435-12.036,28.435c8.955,0.038,11.175,2.754,18.218,4.895c7.043,2.14,12.683,0.778,12.683,0.778
					L68.68,76.611C68.68,76.611,66.229,72.019,60.915,70.313z"/>
				<path style="fill:#FFD6D6;" d="M42.067,84.253c-0.03,1.55-1.31,2.782-2.86,2.752c-1.55-0.03-2.782-1.31-2.752-2.86
					c0.03-1.55,1.31-2.782,2.86-2.752C40.865,81.423,42.097,82.703,42.067,84.253z"/>
			</g>
		</g>
	</g>
</g>
</svg>
